<?xml version="1.0" encoding="UTF-8" standalone="no"?>
<!DOCTYPE svg PUBLIC "-//W3C//DTD SVG 1.1//EN" "http://www.w3.org/Graphics/SVG/1.1/DTD/svg11.dtd">
<svg width="100%" height="100%" viewBox="0 0 430 932" version="1.1" xmlns="http://www.w3.org/2000/svg" xmlns:xlink="http://www.w3.org/1999/xlink" xml:space="preserve" xmlns:serif="http://www.serif.com/" style="fill-rule:evenodd;clip-rule:evenodd;stroke-linecap:round;stroke-linejoin:round;stroke-miterlimit:1.5;">
    <g transform="matrix(1.05252,0,0,1,-24.1384,47.2666)">
        <path d="M234.023,123.328C249.778,126.643 247.763,143.74 234.028,145.324" style="fill:none;stroke:black;stroke-opacity:0.9;stroke-width:0.97px;"/>
        <g transform="matrix(-1,0,0,1,467.624,0.00553183)">
            <path d="M234.023,123.328C249.778,126.643 247.763,143.74 234.028,145.324" style="fill:none;stroke:black;stroke-opacity:0.9;stroke-width:0.97px;"/>
        </g>
        <g transform="matrix(1,0,0,1,3.96868,-20.3136)">
            <g transform="matrix(0.947105,0,0,0.908725,-19.3441,95.6991)">
                <path d="M315.213,660.253L264.003,660.892L315.213,660.253C315.213,660.253 339.681,659.152 339.681,641.769C338.678,636.756 335.149,631.977 328.552,627.988C334.863,619.673 342.192,600.869 341.078,595.701C340.111,589.696 330.747,570.019 326.401,564.964C325.531,561.588 334.695,549.874 340.257,547.369C335.068,546.523 310.669,518.78 311.166,514.215L306.691,323.095C306.691,323.095 328.464,323.059 329.224,323.085C341.855,323.515 341.388,300.519 329.935,300.843C338.663,296.944 335.529,280.542 328.389,278.855C329.586,275.106 324.43,264.667 321.6,261.81L333.574,261.777C338.415,259.883 337.398,248.655 333.134,248.001L324.187,247.861C326.064,226.328 339.275,165.855 383.037,139.387L328.058,139.918C321.972,94.144 298.464,76.037 262.022,76.305" style="fill:none;stroke:black;stroke-width:1.05px;"/>
            </g>
            <path d="M168.206,369.013L293.139,369.082" style="fill:none;stroke:black;stroke-width:0.97px;"/>
            <path d="M190.433,389.207L271.125,389.304" style="fill:none;stroke:black;stroke-width:0.97px;"/>
            <g transform="matrix(-0.947105,0,0,0.908725,480.263,95.6817)">
                <path d="M315.213,660.253L264.003,660.892L315.213,660.253C315.213,660.253 339.681,659.152 339.681,641.769C338.678,636.756 335.149,631.977 328.552,627.988C334.863,619.673 342.192,600.869 341.078,595.701C340.111,589.696 330.747,570.019 326.401,564.964C325.531,561.588 334.695,549.874 340.257,547.369C335.068,546.523 310.669,518.78 311.166,514.215L306.691,323.095C306.691,323.095 328.464,323.059 329.224,323.085C341.855,323.515 341.388,300.519 329.935,300.843C338.663,296.944 335.529,280.542 328.389,278.855C329.586,275.106 324.43,264.667 321.6,261.81L333.574,261.777C338.415,259.883 337.398,248.655 333.134,248.001L324.187,247.861C326.064,226.328 339.275,165.855 383.037,139.387L328.058,139.918C321.972,94.144 298.464,76.037 262.022,76.305" style="fill:none;stroke:black;stroke-width:1.05px;"/>
            </g>
            <path d="M287.874,320.761L173.224,320.919" style="fill:none;stroke:black;stroke-width:0.97px;"/>
            <path d="M285.547,333.663L175.674,333.595" style="fill:none;stroke:black;stroke-width:0.97px;"/>
            <path d="M291.622,348.891L169.244,349.084" style="fill:none;stroke:black;stroke-width:0.97px;"/>
            <path d="M169.398,666.269C209.192,673.372 249.903,674.358 291.94,666.224" style="fill:none;stroke:black;stroke-width:0.97px;"/>
            <g transform="matrix(2.40191,0,0,2.40191,-46.0183,-321.32)">
                <g transform="matrix(1,0,0,1,-49.8073,3.97961)">
                    <path d="M117.944,222.383C122.856,220.439 126.575,217.915 129.442,214.977C132.178,218.15 135.484,220.697 139.691,222.255" style="fill:none;stroke:black;stroke-width:0.41px;"/>
                </g>
                <g transform="matrix(1,0,0,-1,-49.7878,448.911)">
                    <path d="M117.944,222.383C122.856,220.439 126.575,217.915 129.442,214.977C132.178,218.15 135.484,220.697 139.691,222.255" style="fill:none;stroke:black;stroke-width:0.41px;"/>
                </g>
            </g>
            <g transform="matrix(2.76311,0,0,2.76311,-18.4683,-402.888)">
                <g transform="matrix(1,0,0,1,-49.8073,3.97961)">
                    <path d="M117.944,222.383C122.856,220.439 126.575,217.915 129.442,214.977C132.178,218.15 135.484,220.697 139.691,222.255" style="fill:none;stroke:black;stroke-width:0.35px;"/>
                </g>
                <g transform="matrix(1,0,0,-1,-49.7878,448.911)">
                    <path d="M117.944,222.383C122.856,220.439 126.575,217.915 129.442,214.977C132.178,218.15 135.484,220.697 139.691,222.255" style="fill:none;stroke:black;stroke-width:0.35px;"/>
                </g>
            </g>
            <g transform="matrix(-2.40191,0,0,2.40191,506.804,-321.454)">
                <g transform="matrix(1,0,0,1,-49.8073,3.97961)">
                    <path d="M117.944,222.383C122.856,220.439 126.575,217.915 129.442,214.977C132.178,218.15 135.484,220.697 139.691,222.255" style="fill:none;stroke:black;stroke-width:0.41px;"/>
                </g>
                <g transform="matrix(1,0,0,-1,-49.7878,448.911)">
                    <path d="M117.944,222.383C122.856,220.439 126.575,217.915 129.442,214.977C132.178,218.15 135.484,220.697 139.691,222.255" style="fill:none;stroke:black;stroke-width:0.41px;"/>
                </g>
            </g>
            <g transform="matrix(-2.76311,0,0,2.76311,479.254,-403.022)">
                <g transform="matrix(1,0,0,1,-49.8073,3.97961)">
                    <path d="M117.944,222.383C122.856,220.439 126.575,217.915 129.442,214.977C132.178,218.15 135.484,220.697 139.691,222.255" style="fill:none;stroke:black;stroke-width:0.35px;"/>
                </g>
                <g transform="matrix(1,0,0,-1,-49.7878,448.911)">
                    <path d="M117.944,222.383C122.856,220.439 126.575,217.915 129.442,214.977C132.178,218.15 135.484,220.697 139.691,222.255" style="fill:none;stroke:black;stroke-width:0.35px;"/>
                </g>
            </g>
        </g>
    </g>
</svg>
